<mxfile host="Electron" agent="Mozilla/5.0 (X11; Linux x86_64) AppleWebKit/537.36 (KHTML, like Gecko) draw.io/26.0.9 Chrome/128.0.6613.186 Electron/32.2.5 Safari/537.36" version="26.0.9">
  <diagram name="Page-1" id="WHjGpynoL61o0lZyjO02">
    <mxGraphModel dx="1128" dy="598" grid="1" gridSize="10" guides="1" tooltips="1" connect="1" arrows="1" fold="1" page="1" pageScale="1" pageWidth="850" pageHeight="1100" math="0" shadow="0">
      <root>
        <mxCell id="0" />
        <mxCell id="1" parent="0" />
        <mxCell id="ac4h2oLAg-T-d9ZvsfSs-4" value="" style="edgeStyle=orthogonalEdgeStyle;rounded=0;orthogonalLoop=1;jettySize=auto;html=1;" edge="1" parent="1" source="ac4h2oLAg-T-d9ZvsfSs-2" target="ac4h2oLAg-T-d9ZvsfSs-3">
          <mxGeometry relative="1" as="geometry" />
        </mxCell>
        <mxCell id="ac4h2oLAg-T-d9ZvsfSs-2" value="&lt;span style=&quot;color: oklab(0.89908 -0.00192907 -0.0048306); font-family: &amp;quot;gg mono&amp;quot;, &amp;quot;Source Code Pro&amp;quot;, Consolas, &amp;quot;Andale Mono WT&amp;quot;, &amp;quot;Andale Mono&amp;quot;, &amp;quot;Lucida Console&amp;quot;, &amp;quot;Lucida Sans Typewriter&amp;quot;, &amp;quot;DejaVu Sans Mono&amp;quot;, &amp;quot;Bitstream Vera Sans Mono&amp;quot;, &amp;quot;Liberation Mono&amp;quot;, &amp;quot;Nimbus Mono L&amp;quot;, Monaco, &amp;quot;Courier New&amp;quot;, Courier, monospace; font-size: 14px; font-style: normal; font-variant-ligatures: normal; font-variant-caps: normal; font-weight: 400; letter-spacing: normal; orphans: 2; text-align: left; text-indent: 0px; text-transform: none; widows: 2; word-spacing: 0px; -webkit-text-stroke-width: 0px; white-space: pre; background-color: oklab(0.296709 -0.000735492 -0.00772537); text-decoration-thickness: initial; text-decoration-style: initial; text-decoration-color: initial; display: inline !important; float: none;&quot;&gt;Temperature Alert&lt;/span&gt;" style="rounded=1;whiteSpace=wrap;html=1;arcSize=50;" vertex="1" parent="1">
          <mxGeometry x="333" y="90" width="185" height="60" as="geometry" />
        </mxCell>
        <mxCell id="ac4h2oLAg-T-d9ZvsfSs-6" value="" style="edgeStyle=orthogonalEdgeStyle;rounded=0;orthogonalLoop=1;jettySize=auto;html=1;" edge="1" parent="1" source="ac4h2oLAg-T-d9ZvsfSs-3" target="ac4h2oLAg-T-d9ZvsfSs-5">
          <mxGeometry relative="1" as="geometry" />
        </mxCell>
        <mxCell id="ac4h2oLAg-T-d9ZvsfSs-3" value="Enter temperature &amp;gt;&amp;gt;&amp;gt;&amp;nbsp;" style="shape=parallelogram;perimeter=parallelogramPerimeter;whiteSpace=wrap;html=1;fixedSize=1;" vertex="1" parent="1">
          <mxGeometry x="335" y="210" width="180" height="60" as="geometry" />
        </mxCell>
        <mxCell id="ac4h2oLAg-T-d9ZvsfSs-9" value="" style="edgeStyle=orthogonalEdgeStyle;rounded=0;orthogonalLoop=1;jettySize=auto;html=1;" edge="1" parent="1" source="ac4h2oLAg-T-d9ZvsfSs-5" target="ac4h2oLAg-T-d9ZvsfSs-8">
          <mxGeometry relative="1" as="geometry" />
        </mxCell>
        <mxCell id="ac4h2oLAg-T-d9ZvsfSs-5" value="temp" style="shape=parallelogram;perimeter=parallelogramPerimeter;whiteSpace=wrap;html=1;fixedSize=1;" vertex="1" parent="1">
          <mxGeometry x="365" y="320" width="120" height="60" as="geometry" />
        </mxCell>
        <mxCell id="ac4h2oLAg-T-d9ZvsfSs-12" style="edgeStyle=orthogonalEdgeStyle;rounded=0;orthogonalLoop=1;jettySize=auto;html=1;" edge="1" parent="1" source="ac4h2oLAg-T-d9ZvsfSs-8" target="ac4h2oLAg-T-d9ZvsfSs-11">
          <mxGeometry relative="1" as="geometry">
            <Array as="points">
              <mxPoint x="622" y="480" />
            </Array>
          </mxGeometry>
        </mxCell>
        <mxCell id="ac4h2oLAg-T-d9ZvsfSs-8" value="temp &amp;gt; 30&amp;nbsp;" style="rhombus;whiteSpace=wrap;html=1;" vertex="1" parent="1">
          <mxGeometry x="287" y="440" width="275" height="80" as="geometry" />
        </mxCell>
        <mxCell id="ac4h2oLAg-T-d9ZvsfSs-10" value="True" style="text;html=1;align=center;verticalAlign=middle;whiteSpace=wrap;rounded=0;" vertex="1" parent="1">
          <mxGeometry x="562" y="450" width="60" height="30" as="geometry" />
        </mxCell>
        <mxCell id="ac4h2oLAg-T-d9ZvsfSs-18" style="edgeStyle=orthogonalEdgeStyle;rounded=0;orthogonalLoop=1;jettySize=auto;html=1;entryX=0.5;entryY=0;entryDx=0;entryDy=0;" edge="1" parent="1" source="ac4h2oLAg-T-d9ZvsfSs-11" target="ac4h2oLAg-T-d9ZvsfSs-16">
          <mxGeometry relative="1" as="geometry">
            <Array as="points">
              <mxPoint x="622" y="640" />
              <mxPoint x="425" y="640" />
            </Array>
          </mxGeometry>
        </mxCell>
        <mxCell id="ac4h2oLAg-T-d9ZvsfSs-11" value="Hot day!" style="shape=parallelogram;perimeter=parallelogramPerimeter;whiteSpace=wrap;html=1;fixedSize=1;" vertex="1" parent="1">
          <mxGeometry x="562" y="550" width="120" height="60" as="geometry" />
        </mxCell>
        <mxCell id="ac4h2oLAg-T-d9ZvsfSs-17" style="edgeStyle=orthogonalEdgeStyle;rounded=0;orthogonalLoop=1;jettySize=auto;html=1;" edge="1" parent="1" source="ac4h2oLAg-T-d9ZvsfSs-13" target="ac4h2oLAg-T-d9ZvsfSs-16">
          <mxGeometry relative="1" as="geometry">
            <Array as="points">
              <mxPoint x="227" y="640" />
              <mxPoint x="425" y="640" />
            </Array>
          </mxGeometry>
        </mxCell>
        <mxCell id="ac4h2oLAg-T-d9ZvsfSs-13" value="Normal day!" style="shape=parallelogram;perimeter=parallelogramPerimeter;whiteSpace=wrap;html=1;fixedSize=1;" vertex="1" parent="1">
          <mxGeometry x="167" y="550" width="120" height="60" as="geometry" />
        </mxCell>
        <mxCell id="ac4h2oLAg-T-d9ZvsfSs-14" style="edgeStyle=orthogonalEdgeStyle;rounded=0;orthogonalLoop=1;jettySize=auto;html=1;entryX=0.535;entryY=0.043;entryDx=0;entryDy=0;entryPerimeter=0;" edge="1" parent="1" source="ac4h2oLAg-T-d9ZvsfSs-8" target="ac4h2oLAg-T-d9ZvsfSs-13">
          <mxGeometry relative="1" as="geometry">
            <Array as="points">
              <mxPoint x="231" y="480" />
            </Array>
          </mxGeometry>
        </mxCell>
        <mxCell id="ac4h2oLAg-T-d9ZvsfSs-15" value="False" style="text;html=1;align=center;verticalAlign=middle;whiteSpace=wrap;rounded=0;" vertex="1" parent="1">
          <mxGeometry x="227" y="450" width="60" height="30" as="geometry" />
        </mxCell>
        <mxCell id="ac4h2oLAg-T-d9ZvsfSs-16" value="END" style="rounded=1;whiteSpace=wrap;html=1;arcSize=50;" vertex="1" parent="1">
          <mxGeometry x="365" y="670" width="120" height="60" as="geometry" />
        </mxCell>
      </root>
    </mxGraphModel>
  </diagram>
</mxfile>
